<svg xmlns="http://www.w3.org/2000/svg" xmlns:xlink="http://www.w3.org/1999/xlink" width="500" zoomAndPan="magnify" viewBox="0 0 375 374.999991" height="500" preserveAspectRatio="xMidYMid meet" version="1.0"><defs><g/><clipPath id="c65149bc19"><path d="M 184 122.566406 L 201 122.566406 L 201 151 L 184 151 Z M 184 122.566406 " clip-rule="nonzero"/></clipPath><clipPath id="bf37761014"><path d="M 183.1875 154 L 201.785156 154 L 201.785156 188 L 183.1875 188 Z M 183.1875 154 " clip-rule="nonzero"/></clipPath></defs><rect x="-37.5" width="450" fill="#ffffff" y="-37.499999" height="449.999989" fill-opacity="1"/><rect x="-37.5" width="450" fill="#ffffff" y="-37.499999" height="449.999989" fill-opacity="1"/><g fill="#00367d" fill-opacity="1"><g transform="translate(46.756435, 206.353824)"><g><path d="M 35.515625 -31.015625 C 39.003906 -30.140625 41.675781 -28.394531 43.53125 -25.78125 C 45.382812 -23.175781 46.3125 -19.597656 46.3125 -15.046875 C 46.3125 -11.835938 45.601562 -9.039062 44.1875 -6.65625 C 42.769531 -4.28125 40.800781 -2.4375 38.28125 -1.125 C 35.757812 0.1875 32.851562 0.84375 29.5625 0.84375 C 27.300781 0.84375 25.320312 0.382812 23.625 -0.53125 C 21.925781 -1.445312 20.546875 -2.734375 19.484375 -4.390625 C 18.421875 -6.046875 17.703125 -7.984375 17.328125 -10.203125 L 25.15625 -10.203125 C 28.039062 -10.203125 30.160156 -10.832031 31.515625 -12.09375 C 32.878906 -13.351562 33.5625 -15.039062 33.5625 -17.15625 C 33.5625 -19.257812 32.910156 -20.945312 31.609375 -22.21875 C 30.304688 -23.488281 28.4375 -24.125 26 -24.125 L 17.328125 -24.125 L 17.328125 -15.890625 C 17.328125 -11.128906 16.222656 -7.21875 14.015625 -4.15625 C 11.804688 -1.101562 8.664062 0.847656 4.59375 1.703125 L 4.59375 -56.078125 C 4.59375 -57.210938 5.15625 -57.78125 6.28125 -57.78125 L 22.765625 -57.78125 C 29.054688 -57.78125 33.898438 -56.453125 37.296875 -53.796875 C 40.703125 -51.148438 42.40625 -47.378906 42.40625 -42.484375 C 42.40625 -39.910156 41.785156 -37.585938 40.546875 -35.515625 C 39.316406 -33.453125 37.640625 -31.953125 35.515625 -31.015625 Z M 17.328125 -34.328125 L 22.765625 -34.328125 C 25.234375 -34.328125 27.039062 -34.863281 28.1875 -35.9375 C 29.332031 -37.019531 29.90625 -38.578125 29.90625 -40.609375 C 29.90625 -42.617188 29.34375 -44.140625 28.21875 -45.171875 C 27.101562 -46.210938 25.285156 -46.734375 22.765625 -46.734375 L 17.328125 -46.734375 Z M 17.328125 -34.328125 "/></g></g></g><g fill="#00367d" fill-opacity="1"><g transform="translate(95.266076, 206.353824)"><g><path d="M 24.125 -38.828125 C 26.988281 -38.828125 29.664062 -38.398438 32.15625 -37.546875 C 34.65625 -36.703125 36.859375 -35.460938 38.765625 -33.828125 C 40.679688 -32.203125 42.175781 -30.191406 43.25 -27.796875 C 44.320312 -25.410156 44.859375 -22.660156 44.859375 -19.546875 L 44.859375 -18.015625 C 44.859375 -16.878906 44.289062 -16.3125 43.15625 -16.3125 L 15.796875 -16.3125 C 15.972656 -13.738281 16.769531 -11.664062 18.1875 -10.09375 C 19.601562 -8.519531 21.5 -7.734375 23.875 -7.734375 C 25.75 -7.734375 27.289062 -8.113281 28.5 -8.875 C 29.71875 -9.644531 30.582031 -10.59375 31.09375 -11.71875 C 31.320312 -12.207031 31.578125 -12.570312 31.859375 -12.8125 C 32.140625 -13.050781 32.507812 -13.171875 32.96875 -13.171875 L 42.40625 -13.171875 C 43 -13.171875 43.441406 -12.992188 43.734375 -12.640625 C 44.035156 -12.285156 44.070312 -11.8125 43.84375 -11.21875 C 42.851562 -8.382812 41.398438 -6.039062 39.484375 -4.1875 C 37.578125 -2.332031 35.316406 -0.941406 32.703125 -0.015625 C 30.097656 0.898438 27.238281 1.359375 24.125 1.359375 C 20.894531 1.359375 17.941406 0.898438 15.265625 -0.015625 C 12.597656 -0.941406 10.300781 -2.273438 8.375 -4.015625 C 6.445312 -5.753906 4.953125 -7.863281 3.890625 -10.34375 C 2.828125 -12.820312 2.296875 -15.601562 2.296875 -18.6875 C 2.296875 -21.75 2.835938 -24.519531 3.921875 -27 C 5.015625 -29.476562 6.535156 -31.59375 8.484375 -33.34375 C 10.441406 -35.101562 12.753906 -36.457031 15.421875 -37.40625 C 18.085938 -38.351562 20.988281 -38.828125 24.125 -38.828125 Z M 15.96875 -23.203125 L 31.359375 -23.203125 C 31.242188 -25.234375 30.503906 -26.898438 29.140625 -28.203125 C 27.785156 -29.503906 25.972656 -30.15625 23.703125 -30.15625 C 21.359375 -30.15625 19.578125 -29.503906 18.359375 -28.203125 C 17.140625 -26.898438 16.34375 -25.234375 15.96875 -23.203125 Z M 15.96875 -23.203125 "/></g></g></g><g fill="#00367d" fill-opacity="1"><g transform="translate(142.586332, 206.353824)"><g><path d="M 6.671875 -11.5625 L 35.515625 -11.5625 C 36.648438 -11.5625 37.21875 -10.992188 37.21875 -9.859375 L 37.21875 -1.703125 C 37.21875 -0.566406 36.648438 0 35.515625 0 L 6.28125 0 C 5.15625 0 4.59375 -0.566406 4.59375 -1.703125 L 4.59375 -56.078125 C 4.59375 -57.210938 5.15625 -57.78125 6.28125 -57.78125 L 15.640625 -57.78125 C 16.765625 -57.78125 17.328125 -57.210938 17.328125 -56.078125 L 17.328125 -31.015625 C 17.328125 -27.523438 16.875 -24.503906 15.96875 -21.953125 C 15.0625 -19.410156 13.804688 -17.289062 12.203125 -15.59375 C 10.609375 -13.894531 8.765625 -12.550781 6.671875 -11.5625 Z M 6.671875 -11.5625 "/></g></g></g><g fill="#00367d" fill-opacity="1"><g transform="translate(180.22166, 206.353824)"><g/></g></g><g fill="#00367d" fill-opacity="1"><g transform="translate(202.310114, 206.353824)"><g><path d="M 35.8125 -31.828125 C 37.882812 -36.160156 41.523438 -38.328125 46.734375 -38.328125 L 46.734375 3.3125 C 46.734375 7.414062 45.8125 10.789062 43.96875 13.4375 C 42.125 16.09375 39.570312 18.054688 36.3125 19.328125 C 33.0625 20.597656 29.3125 21.234375 25.0625 21.234375 C 22.457031 21.234375 19.929688 20.972656 17.484375 20.453125 C 15.035156 19.929688 12.8125 19.101562 10.8125 17.96875 C 8.8125 16.832031 7.148438 15.320312 5.828125 13.4375 C 4.515625 11.5625 3.675781 9.265625 3.3125 6.546875 C 3.226562 5.972656 3.34375 5.53125 3.65625 5.21875 C 3.96875 4.914062 4.390625 4.765625 4.921875 4.765625 L 14.28125 4.765625 C 15.269531 4.765625 15.890625 5.300781 16.140625 6.375 C 16.566406 8.1875 17.550781 9.546875 19.09375 10.453125 C 20.632812 11.359375 22.679688 11.8125 25.234375 11.8125 C 28.035156 11.8125 30.191406 11.128906 31.703125 9.765625 C 33.222656 8.410156 33.984375 6.234375 33.984375 3.234375 L 33.984375 -3.5625 C 32.367188 -2.007812 30.476562 -0.800781 28.3125 0.0625 C 26.144531 0.925781 23.757812 1.359375 21.15625 1.359375 C 18.40625 1.359375 15.882812 0.867188 13.59375 -0.109375 C 11.300781 -1.085938 9.328125 -2.46875 7.671875 -4.25 C 6.015625 -6.03125 4.734375 -8.148438 3.828125 -10.609375 C 2.921875 -13.078125 2.46875 -15.800781 2.46875 -18.78125 C 2.46875 -21.726562 2.921875 -24.425781 3.828125 -26.875 C 4.734375 -29.320312 6.015625 -31.4375 7.671875 -33.21875 C 9.328125 -35.007812 11.300781 -36.390625 13.59375 -37.359375 C 15.882812 -38.335938 18.40625 -38.828125 21.15625 -38.828125 C 24.269531 -38.828125 27.078125 -38.210938 29.578125 -36.984375 C 32.085938 -35.753906 34.164062 -34.035156 35.8125 -31.828125 Z M 25.0625 -8.84375 C 26.789062 -8.84375 28.328125 -9.257812 29.671875 -10.09375 C 31.015625 -10.925781 32.066406 -12.082031 32.828125 -13.5625 C 33.597656 -15.050781 33.984375 -16.757812 33.984375 -18.6875 C 33.984375 -20.613281 33.597656 -22.320312 32.828125 -23.8125 C 32.066406 -25.300781 31.015625 -26.460938 29.671875 -27.296875 C 28.328125 -28.128906 26.789062 -28.546875 25.0625 -28.546875 C 23.332031 -28.546875 21.796875 -28.128906 20.453125 -27.296875 C 19.109375 -26.460938 18.050781 -25.300781 17.28125 -23.8125 C 16.519531 -22.320312 16.140625 -20.613281 16.140625 -18.6875 C 16.140625 -16.757812 16.519531 -15.050781 17.28125 -13.5625 C 18.050781 -12.082031 19.109375 -10.925781 20.453125 -10.09375 C 21.796875 -9.257812 23.332031 -8.84375 25.0625 -8.84375 Z M 25.0625 -8.84375 "/></g></g></g><g fill="#00367d" fill-opacity="1"><g transform="translate(253.198507, 206.353824)"><g><path d="M 28.296875 -38.328125 C 31.640625 -38.328125 34.34375 -37.609375 36.40625 -36.171875 C 38.476562 -34.742188 39.992188 -32.75 40.953125 -30.1875 C 41.921875 -27.625 42.40625 -24.640625 42.40625 -21.234375 L 42.40625 -1.703125 C 42.40625 -0.566406 41.835938 0 40.703125 0 L 31.359375 0 C 30.222656 0 29.65625 -0.566406 29.65625 -1.703125 L 29.65625 -21.234375 C 29.65625 -23.453125 29.207031 -25.140625 28.3125 -26.296875 C 27.425781 -27.460938 25.976562 -28.046875 23.96875 -28.046875 C 22.632812 -28.046875 21.425781 -27.617188 20.34375 -26.765625 C 19.269531 -25.910156 18.414062 -24.773438 17.78125 -23.359375 C 17.144531 -21.941406 16.828125 -20.382812 16.828125 -18.6875 L 16.828125 -1.703125 C 16.828125 -0.566406 16.257812 0 15.125 0 L 5.78125 0 C 4.644531 0 4.078125 -0.566406 4.078125 -1.703125 L 4.078125 -63.71875 C 8.210938 -62.875 11.367188 -61.070312 13.546875 -58.3125 C 15.734375 -55.550781 16.828125 -51.972656 16.828125 -47.578125 L 16.828125 -32.921875 C 18.097656 -34.503906 19.707031 -35.800781 21.65625 -36.8125 C 23.613281 -37.820312 25.828125 -38.328125 28.296875 -38.328125 Z M 28.296875 -38.328125 "/></g></g></g><g fill="#00367d" fill-opacity="1"><g transform="translate(299.074512, 206.353824)"><g><path d="M 20.90625 -37.46875 L 26.421875 -37.46875 C 27.554688 -37.46875 28.125 -36.898438 28.125 -35.765625 L 28.125 -29.3125 C 28.125 -28.175781 27.554688 -27.609375 26.421875 -27.609375 L 20.90625 -27.609375 L 20.90625 -1.703125 C 20.90625 -0.566406 20.335938 0 19.203125 0 L 9.859375 0 C 8.722656 0 8.15625 -0.566406 8.15625 -1.703125 L 8.15625 -27.609375 L 2.71875 -27.609375 C 1.582031 -27.609375 1.015625 -28.175781 1.015625 -29.3125 L 1.015625 -35.765625 C 1.015625 -36.898438 1.582031 -37.46875 2.71875 -37.46875 L 8.15625 -37.46875 C 8.15625 -41.863281 9.25 -45.441406 11.4375 -48.203125 C 13.632812 -50.960938 16.789062 -52.765625 20.90625 -53.609375 Z M 20.90625 -37.46875 "/></g></g></g><g clip-path="url(#c65149bc19)"><path fill="#fddd0f" d="M 200.480469 142.746094 C 200.480469 147.144531 196.914062 150.710938 192.515625 150.710938 C 188.117188 150.710938 184.546875 147.144531 184.546875 142.746094 C 184.546875 138.347656 192.515625 122.648438 192.515625 122.648438 C 192.515625 122.648438 200.480469 138.347656 200.480469 142.746094 " fill-opacity="1" fill-rule="nonzero"/></g><path fill="#f79718" d="M 197.5 145.730469 C 197.5 148.480469 195.269531 150.710938 192.515625 150.710938 C 189.761719 150.710938 187.53125 148.480469 187.53125 145.730469 C 187.53125 142.976562 192.515625 133.152344 192.515625 133.152344 C 192.515625 133.152344 197.5 142.976562 197.5 145.730469 " fill-opacity="1" fill-rule="nonzero"/><path fill="#4c1a13" d="M 191.460938 158.269531 L 192.515625 141.933594 L 193.570312 158.269531 Z M 191.460938 158.269531 " fill-opacity="1" fill-rule="nonzero"/><path fill="#00367d" d="M 200.480469 205.273438 L 200.480469 162.492188 C 200.480469 158.089844 196.914062 154.519531 192.515625 154.519531 C 188.109375 154.519531 184.539062 158.089844 184.539062 162.492188 L 184.539062 205.273438 C 184.539062 205.273438 186.570312 206.734375 192.515625 206.734375 C 198.460938 206.734375 200.480469 205.273438 200.480469 205.273438 " fill-opacity="1" fill-rule="nonzero"/><g clip-path="url(#bf37761014)"><path fill="#093d81" d="M 185.550781 177.953125 C 185.566406 177.609375 185.5625 177.265625 185.542969 176.917969 C 185.503906 176.136719 185.433594 175.355469 185.429688 174.570312 C 185.425781 173.652344 185.371094 172.519531 185.875 171.667969 C 186.71875 170.242188 188.65625 169.929688 190.027344 171.042969 C 191.769531 172.464844 190.695312 175.902344 190.28125 177.582031 C 189.582031 180.390625 188.648438 182.917969 189.449219 185.808594 C 189.972656 187.683594 192.972656 188.1875 193.53125 185.851562 C 193.824219 184.644531 193.789062 183.460938 193.617188 182.246094 C 193.371094 180.527344 193.125 178.886719 193.078125 177.160156 C 193.019531 174.894531 192.765625 171.171875 196.050781 171.527344 C 199.488281 171.90625 198.355469 175.304688 199.230469 177.464844 C 199.847656 178.976562 201.84375 177.558594 201.84375 175.152344 L 201.84375 162.492188 C 201.84375 158.089844 197.667969 154.519531 192.515625 154.519531 C 187.359375 154.519531 183.175781 158.089844 183.175781 162.492188 L 183.175781 177.582031 C 183.175781 180.871094 185.589844 179.277344 185.550781 177.953125 " fill-opacity="1" fill-rule="nonzero"/></g></svg>